# Blender 5.0.1
# www.blender.org
o Plane
v -0.153280 -0.306560 -0.005774
v 0.153280 -0.306560 -0.005774
v -0.153280 0.306560 -0.005774
v 0.153280 0.306560 -0.005774
v -0.152859 -0.305719 0.143355
v 0.152859 -0.305719 0.143355
v -0.152859 0.305719 0.143355
v 0.152859 0.305719 0.143355
v -0.304800 -0.457200 0.142400
v 0.304800 -0.457200 0.142400
v -0.304800 0.457200 0.142400
v 0.304800 0.457200 0.142400
v -0.152400 -0.304800 0.000000
v 0.152400 -0.304800 0.000000
v -0.152400 0.304800 0.000000
v 0.152400 0.304800 0.000000
v -0.152400 -0.304800 0.152400
v 0.152400 -0.304800 0.152400
v -0.152400 0.304800 0.152400
v 0.152400 0.304800 0.152400
v -0.304800 -0.457200 0.152400
v 0.304800 -0.457200 0.152400
v -0.304800 0.457200 0.152400
v 0.304800 0.457200 0.152400
vn -0.0000 -0.0000 -1.0000
vn -0.0000 0.0063 -1.0000
vn -0.0000 1.0000 0.0056
vn -0.0000 -1.0000 0.0056
vn 1.0000 -0.0000 0.0028
vn -1.0000 -0.0000 0.0028
vn -0.0063 -0.0000 -1.0000
vn 0.0063 -0.0000 -1.0000
vn -0.0000 -0.0063 -1.0000
vn -0.0000 -0.0000 1.0000
vn -0.0000 -1.0000 -0.0000
vn -0.0000 1.0000 -0.0000
vn -1.0000 -0.0000 -0.0000
vn 1.0000 -0.0000 -0.0000
vt 0.898406 0.638181
vt 0.853130 0.546369
vt 0.905631 0.547286
vt 0.713859 0.332863
vt 0.814068 0.299695
vt 0.780798 0.332863
vt 0.814248 0.689600
vt 0.845905 0.637264
vt 0.937287 0.494951
vt 0.814248 0.509626
vt 0.937287 0.674925
vt 0.713859 0.466741
vt 0.680590 0.299694
vt 0.814068 0.499910
vt 0.780798 0.466742
vt 0.680590 0.499910
vt 0.002788 0.992599
vt 0.499411 -0.000648
vt 0.499411 0.992599
vt 0.814067 0.700306
vt 0.713959 0.666937
vt 0.780697 0.666937
vt 0.898165 0.351963
vt 0.814248 0.299694
vt 0.937711 0.314391
vt 0.853794 0.442501
vt 0.937711 0.494770
vt 0.814248 0.480074
vt 0.905502 0.441428
vt 0.846457 0.353037
vt 0.680590 0.500091
vt 0.713959 0.533460
vt 0.780697 0.533460
vt 0.680409 0.496608
vt 0.678137 0.302885
vt 0.680409 0.299694
vt 0.537273 0.511472
vt 0.677679 0.494442
vt 0.537273 0.314559
vt 0.539545 0.508282
vt 0.540004 0.316725
vt 0.002788 -0.000648
vt 0.680590 0.700306
vt 0.814067 0.500091
s 0
f 3/1/1 2/2/1 1/3/1
f 6/4/2 9/5/2 5/6/2
f 3/1/3 8/7/3 4/8/3
f 2/2/4 5/9/4 1/3/4
f 4/8/5 6/10/5 2/2/5
f 1/3/6 7/11/6 3/1/6
f 8/12/7 10/13/7 6/4/7
f 5/6/8 11/14/8 7/15/8
f 7/15/9 12/16/9 8/12/9
f 14/17/10 15/18/10 13/19/10
f 21/20/10 18/21/10 17/22/10
f 20/23/11 15/24/11 16/25/11
f 17/26/12 14/27/12 13/28/12
f 18/29/13 16/25/13 14/27/13
f 19/30/14 13/28/14 15/24/14
f 18/21/10 24/31/10 20/32/10
f 19/33/10 21/20/10 17/22/10
f 24/31/10 19/33/10 20/32/10
f 9/34/13 23/35/13 11/36/13
f 10/37/11 21/38/11 9/34/11
f 12/39/14 22/40/14 10/37/14
f 11/36/12 24/41/12 12/39/12
f 3/1/1 4/8/1 2/2/1
f 6/4/2 10/13/2 9/5/2
f 3/1/3 7/11/3 8/7/3
f 2/2/4 6/10/4 5/9/4
f 4/8/5 8/7/5 6/10/5
f 1/3/6 5/9/6 7/11/6
f 8/12/7 12/16/7 10/13/7
f 5/6/8 9/5/8 11/14/8
f 7/15/9 11/14/9 12/16/9
f 14/17/10 16/42/10 15/18/10
f 21/20/10 22/43/10 18/21/10
f 20/23/11 19/30/11 15/24/11
f 17/26/12 18/29/12 14/27/12
f 18/29/13 20/23/13 16/25/13
f 19/30/14 17/26/14 13/28/14
f 18/21/10 22/43/10 24/31/10
f 19/33/10 23/44/10 21/20/10
f 24/31/10 23/44/10 19/33/10
f 9/34/13 21/38/13 23/35/13
f 10/37/11 22/40/11 21/38/11
f 12/39/14 24/41/14 22/40/14
f 11/36/12 23/35/12 24/41/12
