# Blender 5.0.1
# www.blender.org
o Plane
v -0.000000 -0.300000 0.300000
v 0.000000 -0.300000 -0.300000
v -0.000000 0.300000 0.300000
v 0.000000 0.300000 -0.300000
v -0.010000 -0.300000 0.300000
v -0.010000 -0.300000 -0.300000
v -0.010000 0.300000 0.300000
v -0.010000 0.300000 -0.300000
v -0.000000 -0.148589 0.109503
v -0.000000 -0.149569 0.119453
v -0.000000 -0.145687 0.099936
v -0.000000 -0.145687 0.138969
v -0.000000 -0.148589 0.129402
v -0.000000 -0.126903 0.077048
v -0.000000 -0.134632 0.083390
v -0.000000 -0.108519 0.069433
v -0.000000 -0.088620 0.069433
v -0.000000 -0.098569 0.068453
v -0.000000 -0.118086 0.072335
v -0.000000 -0.140974 0.091119
v 0.000000 0.056758 -0.074345
v 0.000000 0.065353 -0.102679
v 0.000000 0.060640 -0.093862
v 0.000000 0.057738 -0.084294
v 0.000000 0.057738 -0.064395
v -0.000000 -0.079052 0.072335
v 0.000000 0.088241 -0.121463
v 0.000000 0.079424 -0.116750
v 0.000000 0.107758 -0.125345
v 0.000000 0.117708 -0.124365
v 0.000000 0.097808 -0.124365
v 0.000000 0.071696 -0.110407
v -0.000000 -0.140974 0.147787
v -0.000000 -0.126903 0.161858
v -0.000000 -0.134632 0.155515
v -0.000000 -0.118086 0.166570
v -0.000000 -0.098569 0.170453
v -0.000000 -0.108519 0.169473
v -0.000000 -0.079052 0.166570
v -0.000000 -0.088620 0.169473
v -0.000000 -0.056164 0.147787
v -0.000000 -0.062507 0.083390
v -0.000000 -0.062507 0.155515
v -0.000000 -0.051451 0.099936
v -0.000000 -0.047569 0.119453
v -0.000000 -0.048549 0.109503
v -0.000000 -0.048549 0.129402
v -0.000000 -0.056164 0.091119
v -0.000000 -0.051451 0.138969
v -0.000000 -0.070235 0.077048
v -0.000000 -0.070235 0.161858
v 0.000000 0.065353 -0.046011
v 0.000000 0.079424 -0.031940
v 0.000000 0.088241 -0.027227
v 0.000000 0.071696 -0.038282
v 0.000000 0.117708 -0.024325
v 0.000000 0.107758 -0.023345
v 0.000000 0.127275 -0.121463
v 0.000000 0.127275 -0.027227
v 0.000000 0.097808 -0.024325
v 0.000000 0.150163 -0.102679
v 0.000000 0.150163 -0.046011
v 0.000000 0.143820 -0.110407
v 0.000000 0.143820 -0.038282
v 0.000000 0.158758 -0.074345
v 0.000000 0.157778 -0.064395
v 0.000000 0.154876 -0.093862
v 0.000000 0.157778 -0.084294
v 0.000000 0.154876 -0.054828
v 0.000000 0.136092 -0.031940
v 0.000000 0.136092 -0.116750
v 0.000000 0.060640 -0.054828
v -0.010000 -0.140974 0.147787
v -0.010000 -0.134632 0.155515
v -0.010000 -0.118086 0.166570
v -0.010000 -0.126903 0.161858
v -0.010000 -0.098569 0.170453
v -0.010000 -0.079052 0.166570
v -0.010000 -0.088620 0.169473
v -0.010000 -0.108519 0.169473
v -0.010000 -0.056164 0.091119
v -0.010000 -0.056164 0.147787
v -0.010000 -0.062507 0.083390
v -0.010000 -0.062507 0.155515
v -0.010000 -0.047569 0.119453
v -0.010000 -0.048549 0.109503
v -0.010000 -0.048549 0.129402
v -0.010000 -0.051451 0.099936
v -0.010000 -0.051451 0.138969
v -0.010000 0.060640 -0.054828
v -0.010000 -0.070235 0.077048
v -0.010000 -0.070235 0.161858
v -0.010000 0.071696 -0.038282
v -0.010000 0.065353 -0.046011
v -0.010000 0.097808 -0.024325
v -0.010000 0.088241 -0.027227
v -0.010000 0.079424 -0.031940
v -0.010000 0.117708 -0.024325
v -0.010000 0.127275 -0.121463
v -0.010000 0.127275 -0.027227
v -0.010000 0.107758 -0.023345
v -0.010000 0.150163 -0.102679
v -0.010000 0.150163 -0.046011
v -0.010000 0.143820 -0.110407
v -0.010000 0.143820 -0.038282
v -0.010000 0.158758 -0.074345
v -0.010000 0.157778 -0.064395
v -0.010000 0.154876 -0.093862
v -0.010000 0.157778 -0.084294
v -0.010000 0.154876 -0.054828
v -0.010000 0.136092 -0.031940
v -0.010000 0.136092 -0.116750
v -0.010000 -0.148589 0.109503
v -0.010000 -0.149569 0.119453
v -0.010000 -0.145687 0.138969
v -0.010000 -0.145687 0.099936
v -0.010000 -0.148589 0.129402
v -0.010000 -0.140974 0.091119
v -0.010000 -0.126903 0.077048
v -0.010000 -0.134632 0.083390
v -0.010000 -0.098569 0.068453
v -0.010000 -0.108519 0.069433
v -0.010000 -0.118086 0.072335
v -0.010000 -0.079052 0.072335
v -0.010000 0.056758 -0.074345
v -0.010000 0.060640 -0.093862
v -0.010000 0.057738 -0.084294
v -0.010000 0.057738 -0.064395
v -0.010000 0.071696 -0.110407
v -0.010000 0.088241 -0.121463
v -0.010000 0.079424 -0.116750
v -0.010000 0.117708 -0.124365
v -0.010000 0.097808 -0.124365
v -0.010000 0.107758 -0.125345
v -0.010000 0.065353 -0.102679
v -0.010000 -0.088620 0.069433
vn 1.0000 -0.0000 -0.0000
vn -1.0000 -0.0000 -0.0000
vn -0.0000 -0.0000 1.0000
vn -0.0000 -1.0000 -0.0000
vn -0.0000 -0.0000 -1.0000
vn -0.0000 1.0000 -0.0000
vn -0.0000 0.9952 -0.0980
vn -0.0000 0.9569 -0.2903
vn -0.0000 0.8819 -0.4714
vn -0.0000 0.7730 -0.6344
vn -0.0000 0.6344 -0.7730
vn -0.0000 0.4714 -0.8819
vn -0.0000 0.2903 -0.9569
vn -0.0000 0.0980 -0.9952
vn -0.0000 -0.0980 -0.9952
vn -0.0000 -0.2903 -0.9569
vn -0.0000 -0.4714 -0.8819
vn -0.0000 -0.6344 -0.7730
vn -0.0000 -0.7730 -0.6344
vn -0.0000 -0.8819 -0.4714
vn -0.0000 -0.9569 -0.2903
vn -0.0000 -0.9952 -0.0980
vn -0.0000 -0.9952 0.0980
vn -0.0000 -0.9569 0.2903
vn -0.0000 -0.8819 0.4714
vn -0.0000 -0.7730 0.6344
vn -0.0000 -0.6344 0.7730
vn -0.0000 -0.4714 0.8819
vn -0.0000 -0.2903 0.9569
vn -0.0000 -0.0980 0.9952
vn -0.0000 0.0980 0.9952
vn -0.0000 0.2903 0.9569
vn -0.0000 0.4714 0.8819
vn -0.0000 0.6344 0.7730
vn -0.0000 0.7730 0.6344
vn -0.0000 0.8819 0.4714
vn -0.0000 0.9569 0.2903
vn -0.0000 0.9952 0.0980
vt 0.593607 0.348136
vt 0.380507 0.563804
vt 0.367627 0.553233
vt 1.000000 1.000000
vt 0.367627 0.694583
vt 0.380507 0.684012
vt 0.734957 0.348136
vt 0.724386 0.361016
vt 0.585752 0.333440
vt 1.000000 0.000000
vt 0.000000 0.000000
vt 0.000000 1.000000
vt 0.339977 0.666979
vt 0.300813 0.666979
vt 0.300813 0.664097
vt 0.339977 0.664097
vt 0.300813 0.661214
vt 0.339977 0.661214
vt 0.300813 0.658332
vt 0.339977 0.658332
vt 0.300813 0.655450
vt 0.339977 0.655450
vt 0.300813 0.652568
vt 0.339977 0.652568
vt 0.300813 0.649686
vt 0.339977 0.649686
vt 0.300813 0.646804
vt 0.339977 0.646804
vt 0.300813 0.643921
vt 0.339977 0.643921
vt 0.300813 0.641039
vt 0.339977 0.641039
vt 0.300813 0.638157
vt 0.339977 0.638157
vt 0.300813 0.635275
vt 0.339977 0.635275
vt 0.300813 0.632393
vt 0.339977 0.632393
vt 0.300813 0.629511
vt 0.339977 0.629511
vt 0.300813 0.626629
vt 0.339977 0.626629
vt 0.300813 0.623746
vt 0.339977 0.623746
vt 0.300813 0.620864
vt 0.339977 0.620864
vt 0.300813 0.617982
vt 0.339977 0.617982
vt 0.300813 0.615100
vt 0.339977 0.615100
vt 0.300813 0.612218
vt 0.339977 0.612218
vt 0.300813 0.609336
vt 0.339977 0.609336
vt 0.300813 0.606454
vt 0.339977 0.606454
vt 0.339977 0.603571
vt 0.300813 0.603571
vt 0.300813 0.600689
vt 0.339977 0.600689
vt 0.300813 0.597807
vt 0.339977 0.597807
vt 0.339977 0.594925
vt 0.300813 0.594925
vt 0.339977 0.592043
vt 0.300813 0.592043
vt 0.339977 0.589161
vt 0.300813 0.589161
vt 0.339977 0.586279
vt 0.300813 0.586279
vt 0.300813 0.583396
vt 0.339977 0.583396
vt 0.300813 0.580514
vt 0.339977 0.580514
vt 0.300813 0.577632
vt 0.339977 0.577632
vt 0.300813 0.574750
vt 0.339977 0.574750
vt 0.339977 0.666979
vt 0.339977 0.664097
vt 0.339977 0.658332
vt 0.300813 0.652568
vt 0.339977 0.652568
vt 0.300814 0.649686
vt 0.339977 0.649686
vt 0.300814 0.641039
vt 0.339977 0.641039
vt 0.339977 0.638157
vt 0.300814 0.635275
vt 0.339977 0.635275
vt 0.300813 0.632393
vt 0.339977 0.632393
vt 0.300813 0.629511
vt 0.300813 0.626629
vt 0.339977 0.626629
vt 0.300813 0.623746
vt 0.300813 0.620864
vt 0.300814 0.617982
vt 0.300814 0.615100
vt 0.339977 0.615100
vt 0.300814 0.612218
vt 0.339977 0.612218
vt 0.300814 0.609336
vt 0.339977 0.609336
vt 0.300814 0.606454
vt 0.339977 0.606454
vt 0.300814 0.603571
vt 0.300814 0.600689
vt 0.300814 0.597807
vt 0.300814 0.594925
vt 0.339977 0.592043
vt 0.300814 0.592043
vt 0.300814 0.589161
vt 0.339977 0.586279
vt 0.300814 0.586279
vt 0.300814 0.583396
vt 0.339977 0.583396
vt 0.300814 0.580514
vt 0.300814 0.577632
vt 0.300813 0.574750
vt 0.249729 0.671131
vt 0.260299 0.684012
vt 0.724386 0.240808
vt 0.711506 0.230237
vt 0.696810 0.222383
vt 0.241874 0.656436
vt 0.237037 0.640490
vt 0.647700 0.217546
vt 0.680865 0.217546
vt 0.664282 0.215912
vt 0.235403 0.623908
vt 0.237037 0.607325
vt 0.241874 0.591380
vt 0.631754 0.222383
vt 0.617059 0.230237
vt 0.249729 0.576684
vt 0.260299 0.563804
vt 0.604178 0.240808
vt 0.593607 0.253689
vt 0.273180 0.553233
vt 0.287875 0.545378
vt 0.585752 0.268384
vt 0.580915 0.284330
vt 0.303821 0.540541
vt 0.320403 0.538908
vt 0.579282 0.300912
vt 0.580915 0.317495
vt 0.336986 0.540541
vt 0.352931 0.545378
vt 0.604178 0.361016
vt 0.391078 0.576684
vt 0.617059 0.371587
vt 0.398933 0.591380
vt 0.631754 0.379442
vt 0.403770 0.607325
vt 0.647699 0.384279
vt 0.405403 0.623908
vt 0.664282 0.385912
vt 0.403770 0.640490
vt 0.680865 0.384279
vt 0.398933 0.656436
vt 0.696810 0.379442
vt 0.391078 0.671131
vt 0.711506 0.371587
vt 0.734957 0.253689
vt 0.273180 0.694583
vt 0.287875 0.702438
vt 0.742812 0.268384
vt 0.747649 0.284330
vt 0.336986 0.707275
vt 0.303821 0.707274
vt 0.320403 0.708908
vt 0.749282 0.300912
vt 0.742812 0.333440
vt 0.747649 0.317495
vt 0.352931 0.702438
vt 0.235403 0.623908
vt 0.664282 0.215912
vt 0.647699 0.217546
vt 0.631754 0.222383
vt 0.604178 0.361016
vt 0.403770 0.607325
vt 0.664282 0.385912
vt 0.405403 0.623908
vt 0.391078 0.671131
s 0
f 48/1/1 55/2/1 53/3/1
f 2/4/1 28/5/1 32/6/1
f 6/4/2 118/7/2 120/8/2
f 81/1/2 88/9/2 97/3/2
f 1/10/3 3/11/3 7/11/3 5/10/3
f 2/4/4 1/10/4 5/10/4 6/4/4
f 4/12/5 2/4/5 6/4/5 8/12/5
f 3/11/6 4/12/6 8/12/6 7/11/6
f 10/13/7 114/14/7 117/15/7 13/16/7
f 13/16/8 117/15/8 115/17/8 12/18/8
f 12/18/9 115/17/9 73/19/9 33/20/9
f 33/20/10 73/19/10 74/21/10 35/22/10
f 35/22/11 74/21/11 76/23/11 34/24/11
f 34/24/12 76/23/12 75/25/12 36/26/12
f 36/26/13 75/25/13 80/27/13 38/28/13
f 38/28/14 80/27/14 77/29/14 37/30/14
f 79/31/15 40/32/15 37/30/15 77/29/15
f 78/33/16 39/34/16 40/32/16 79/31/16
f 92/35/17 51/36/17 39/34/17 78/33/17
f 84/37/18 43/38/18 51/36/18 92/35/18
f 43/38/19 84/37/19 82/39/19 41/40/19
f 41/40/20 82/39/20 89/41/20 49/42/20
f 49/42/21 89/41/21 87/43/21 47/44/21
f 47/44/22 87/43/22 85/45/22 45/46/22
f 45/46/23 85/45/23 86/47/23 46/48/23
f 46/48/24 86/47/24 88/49/24 44/50/24
f 44/50/25 88/49/25 81/51/25 48/52/25
f 48/52/26 81/51/26 83/53/26 42/54/26
f 42/54/27 83/53/27 91/55/27 50/56/27
f 26/57/28 50/56/28 91/55/28 124/58/28
f 26/57/29 124/58/29 136/59/29 17/60/29
f 17/60/30 136/59/30 121/61/30 18/62/30
f 16/63/31 18/62/31 121/61/31 122/64/31
f 19/65/32 16/63/32 122/64/32 123/66/32
f 14/67/33 19/65/33 123/66/33 119/68/33
f 15/69/34 14/67/34 119/68/34 120/70/34
f 15/69/35 120/70/35 118/71/35 20/72/35
f 20/72/36 118/71/36 116/73/36 11/74/36
f 11/74/37 116/73/37 113/75/37 9/76/37
f 9/76/38 113/75/38 114/77/38 10/78/38
f 21/79/7 125/14/7 128/15/7 25/80/7
f 90/17/8 72/18/8 25/80/8 128/15/8
f 72/18/9 90/17/9 94/19/9 52/81/9
f 52/81/10 94/19/10 93/21/10 55/22/10
f 55/22/11 93/21/11 97/82/11 53/83/11
f 53/83/12 97/82/12 96/84/12 54/85/12
f 54/85/13 96/84/13 95/27/13 60/28/13
f 60/28/14 95/27/14 101/29/14 57/30/14
f 98/86/15 56/87/15 57/30/15 101/29/15
f 100/33/16 59/88/16 56/87/16 98/86/16
f 111/89/17 70/90/17 59/88/17 100/33/17
f 105/91/18 64/92/18 70/90/18 111/89/18
f 64/92/19 105/91/19 103/93/19 62/40/19
f 62/40/20 103/93/20 110/94/20 69/95/20
f 69/95/21 110/94/21 107/96/21 66/44/21
f 66/44/22 107/96/22 106/97/22 65/46/22
f 65/46/23 106/97/23 109/98/23 68/48/23
f 68/48/24 109/98/24 108/99/24 67/100/24
f 67/100/25 108/99/25 102/101/25 61/102/25
f 61/102/26 102/101/26 104/103/26 63/104/26
f 63/104/27 104/103/27 112/105/27 71/106/27
f 71/106/28 112/105/28 99/107/28 58/57/28
f 58/57/29 99/107/29 132/108/29 30/60/29
f 30/60/30 132/108/30 134/109/30 29/62/30
f 31/63/31 29/62/31 134/109/31 133/110/31
f 27/111/32 31/63/32 133/110/32 130/112/32
f 28/67/33 27/111/33 130/112/33 131/113/33
f 32/114/34 28/67/34 131/113/34 129/115/34
f 32/114/35 129/115/35 135/116/35 22/117/35
f 22/117/36 135/116/36 126/118/36 23/74/36
f 23/74/37 126/118/37 127/119/37 24/76/37
f 24/76/38 127/119/38 125/120/38 21/78/38
f 61/121/1 63/122/1 4/12/1
f 1/10/1 35/123/1 34/124/1
f 1/10/1 34/124/1 36/125/1
f 67/126/1 61/121/1 4/12/1
f 68/127/1 67/126/1 4/12/1
f 3/11/1 1/10/1 40/128/1
f 1/10/1 36/125/1 38/129/1
f 1/10/1 38/129/1 37/130/1
f 68/127/1 4/12/1 65/131/1
f 4/12/1 3/11/1 66/132/1
f 65/131/1 4/12/1 66/132/1
f 1/10/1 37/130/1 40/128/1
f 69/133/1 66/132/1 3/11/1
f 3/11/1 40/128/1 39/134/1
f 3/11/1 39/134/1 51/135/1
f 62/136/1 69/133/1 3/11/1
f 64/137/1 62/136/1 3/11/1
f 3/11/1 51/135/1 43/138/1
f 3/11/1 43/138/1 41/139/1
f 70/140/1 64/137/1 3/11/1
f 59/141/1 70/140/1 3/11/1
f 3/11/1 41/139/1 49/142/1
f 3/11/1 49/142/1 47/143/1
f 56/144/1 59/141/1 3/11/1
f 57/145/1 56/144/1 47/143/1
f 56/144/1 3/11/1 47/143/1
f 47/143/1 45/146/1 57/145/1
f 45/146/1 46/147/1 60/148/1
f 60/148/1 57/145/1 45/146/1
f 54/149/1 60/148/1 46/147/1
f 46/147/1 44/9/1 54/149/1
f 48/1/1 42/150/1 55/2/1
f 44/9/1 48/1/1 53/3/1
f 53/3/1 54/149/1 44/9/1
f 52/151/1 55/2/1 42/150/1
f 52/151/1 42/150/1 50/152/1
f 72/153/1 52/151/1 50/152/1
f 72/153/1 50/152/1 26/154/1
f 25/155/1 72/153/1 26/154/1
f 25/155/1 26/154/1 17/156/1
f 21/157/1 25/155/1 17/156/1
f 21/157/1 17/156/1 18/158/1
f 24/159/1 21/157/1 18/158/1
f 24/159/1 18/158/1 16/160/1
f 23/161/1 24/159/1 2/4/1
f 24/159/1 16/160/1 2/4/1
f 16/160/1 19/162/1 2/4/1
f 22/163/1 23/161/1 2/4/1
f 19/162/1 14/164/1 2/4/1
f 32/6/1 22/163/1 2/4/1
f 14/164/1 15/8/1 2/4/1
f 33/165/1 35/123/1 1/10/1
f 4/12/1 63/122/1 71/166/1
f 4/12/1 71/166/1 58/167/1
f 12/168/1 33/165/1 1/10/1
f 13/169/1 12/168/1 1/10/1
f 2/4/1 4/12/1 31/170/1
f 4/12/1 58/167/1 30/171/1
f 4/12/1 30/171/1 29/172/1
f 13/169/1 1/10/1 10/173/1
f 1/10/1 2/4/1 11/174/1
f 10/173/1 1/10/1 9/175/1
f 9/175/1 1/10/1 11/174/1
f 4/12/1 29/172/1 31/170/1
f 2/4/1 31/170/1 27/176/1
f 2/4/1 27/176/1 28/5/1
f 20/7/1 11/174/1 2/4/1
f 15/8/1 20/7/1 2/4/1
f 76/124/2 74/123/2 5/10/2
f 8/12/2 104/122/2 102/121/2
f 8/12/2 102/121/2 108/126/2
f 75/125/2 76/124/2 5/10/2
f 80/129/2 75/125/2 5/10/2
f 7/11/2 8/12/2 107/132/2
f 8/12/2 108/126/2 109/127/2
f 8/12/2 109/127/2 106/177/2
f 80/129/2 5/10/2 77/178/2
f 5/10/2 7/11/2 79/179/2
f 77/178/2 5/10/2 79/179/2
f 8/12/2 106/177/2 107/132/2
f 78/180/2 79/179/2 7/11/2
f 7/11/2 107/132/2 110/133/2
f 7/11/2 110/133/2 103/136/2
f 92/135/2 78/180/2 7/11/2
f 84/138/2 92/135/2 7/11/2
f 7/11/2 103/136/2 105/137/2
f 7/11/2 105/137/2 111/140/2
f 82/139/2 84/138/2 7/11/2
f 89/142/2 82/139/2 7/11/2
f 7/11/2 111/140/2 100/141/2
f 7/11/2 100/141/2 98/144/2
f 87/143/2 89/142/2 7/11/2
f 85/146/2 87/143/2 101/145/2
f 87/143/2 7/11/2 98/144/2
f 101/145/2 87/143/2 98/144/2
f 101/145/2 95/148/2 85/146/2
f 86/147/2 85/146/2 95/148/2
f 88/9/2 86/147/2 96/149/2
f 96/149/2 86/147/2 95/148/2
f 97/3/2 93/2/2 81/1/2
f 93/2/2 83/181/2 81/1/2
f 96/149/2 97/3/2 88/9/2
f 91/152/2 83/181/2 94/151/2
f 83/181/2 93/2/2 94/151/2
f 124/154/2 91/152/2 90/153/2
f 91/152/2 94/151/2 90/153/2
f 136/156/2 124/154/2 128/182/2
f 124/154/2 90/153/2 128/182/2
f 121/183/2 136/156/2 125/184/2
f 136/156/2 128/182/2 125/184/2
f 122/160/2 121/183/2 127/159/2
f 121/183/2 125/184/2 127/159/2
f 123/162/2 122/160/2 6/4/2
f 122/160/2 127/159/2 6/4/2
f 127/159/2 126/161/2 6/4/2
f 119/164/2 123/162/2 6/4/2
f 126/161/2 135/185/2 6/4/2
f 120/8/2 119/164/2 6/4/2
f 135/185/2 129/6/2 6/4/2
f 112/166/2 104/122/2 8/12/2
f 5/10/2 74/123/2 73/165/2
f 5/10/2 73/165/2 115/168/2
f 99/167/2 112/166/2 8/12/2
f 132/171/2 99/167/2 8/12/2
f 6/4/2 5/10/2 116/174/2
f 5/10/2 115/168/2 117/169/2
f 5/10/2 117/169/2 114/173/2
f 132/171/2 8/12/2 134/172/2
f 8/12/2 6/4/2 133/170/2
f 134/172/2 8/12/2 133/170/2
f 5/10/2 114/173/2 113/175/2
f 5/10/2 113/175/2 116/174/2
f 130/176/2 133/170/2 6/4/2
f 6/4/2 116/174/2 118/7/2
f 131/5/2 130/176/2 6/4/2
f 129/6/2 131/5/2 6/4/2
